<svg xmlns="http://www.w3.org/2000/svg" fill="none" viewBox="0 0 48 48" id="Skull-Sharp--Streamline-Ionic-Sharp">
  <desc>
    Skull Sharp Streamline Icon: https://streamlinehq.com
  </desc>
  <path fill="#000000" d="M24 1.5C13.2478 1.5 4.5 10.2478 4.5 21v14.5153l7.6875 3.076L13.77 46.5H18v-6h3v6h1.5v-6h3v6H27v-6h3v6h4.23l1.5825 -7.9087 7.6875 -3.076V21c0 -10.7522 -8.7478 -19.5 -19.5 -19.5Zm-8.25 30c-1.0384 0 -2.0534 -0.3079 -2.9167 -0.8848 -0.8634 -0.5769 -1.5363 -1.3968 -1.9336 -2.3561 -0.3974 -0.9593 -0.5014 -2.0149 -0.2988 -3.0333 0.2026 -1.0184 0.7025 -1.9539 1.4368 -2.6881 0.7342 -0.7343 1.6697 -1.2342 2.6881 -1.4368 1.0184 -0.2026 2.074 -0.0986 3.0333 0.2988 0.9593 0.3973 1.7792 1.0702 2.3561 1.9336 0.5769 0.8633 0.8848 1.8783 0.8848 2.9167 -0.0015 1.3919 -0.5551 2.7264 -1.5394 3.7106 -0.9842 0.9843 -2.3187 1.5379 -3.7106 1.5394Zm4.8291 6L22.875 30h2.25l2.2959 7.5h-6.8418Zm11.6709 -6c-1.0384 0 -2.0534 -0.3079 -2.9167 -0.8848 -0.8634 -0.5769 -1.5363 -1.3968 -1.9336 -2.3561 -0.3974 -0.9593 -0.5014 -2.0149 -0.2988 -3.0333 0.2026 -1.0184 0.7025 -1.9539 1.4368 -2.6881 0.7342 -0.7343 1.6697 -1.2342 2.6881 -1.4368 1.0184 -0.2026 2.074 -0.0986 3.0333 0.2988 0.9593 0.3973 1.7792 1.0702 2.3561 1.9336 0.5769 0.8633 0.8848 1.8783 0.8848 2.9167 -0.0015 1.3919 -0.5551 2.7264 -1.5394 3.7106 -0.9842 0.9843 -2.3187 1.5379 -3.7106 1.5394Z" stroke-width="1"></path>
</svg>